<?xml version="1.0" encoding="utf-8"?>
<svg width="20" height="20" viewBox="0 0 20 20" fill="none" xmlns="http://www.w3.org/2000/svg">
  <path fill-rule="evenodd" clip-rule="evenodd" d="M 3.505 1.532 C 0.811 1.532 -0.873 4.449 0.474 6.782 C 1.099 7.865 2.255 8.532 3.505 8.532 C 6.199 8.532 7.883 5.615 6.536 3.282 C 5.911 2.199 4.755 1.532 3.505 1.532 Z M 3.505 3.032 C 1.965 3.032 1.003 4.699 1.773 6.032 C 2.13 6.651 2.79 7.032 3.505 7.032 C 5.045 7.032 6.007 5.365 5.237 4.032 C 4.88 3.413 4.22 3.032 3.505 3.032 Z" fill="#CED0D6"/>
  <path fill-rule="evenodd" clip-rule="evenodd" d="M 13.006 1.959 L 19.006 1.959 L 19.006 7.959 L 13.006 7.959 L 13.006 1.959 Z M 14.506 3.459 L 14.506 6.459 L 17.506 6.459 L 17.506 3.459 L 14.506 3.459 Z" fill="#CED0D6"/>
  <path fill="none" stroke="#CED0D6" stroke-width="1.5" d="M 15.946 12.298 L 13.111 15.039 L 15.946 17.78 L 18.782 15.039 L 15.946 12.298 Z" style=""/>
  <rect x="6.743" y="4.779" width="6.431" height="1.5" fill="#CED0D6" style=""/>
  <rect x="8.836" y="6.239" width="1.5" height="8.5" fill="#CED0D6"/>
  <rect x="8.857" y="14.262" width="4.141" height="1.5" fill="#CED0D6" style=""/>
</svg>