<!--
  - SPDX-License-Identifier: Apache-2.0
  - Copyright 2026 Concord Plugin Authors
  -->

<svg xmlns="http://www.w3.org/2000/svg" width="16" height="16" viewBox="0 0 24 24" fill="none" stroke="#D19A66"
     stroke-width="2" stroke-linecap="round" stroke-linejoin="round"
     class="lucide lucide-text-cursor-input-icon lucide-text-cursor-input">
    <path d="M12 20h-1a2 2 0 0 1-2-2 2 2 0 0 1-2 2H6"/>
    <path d="M13 8h7a2 2 0 0 1 2 2v4a2 2 0 0 1-2 2h-7"/>
    <path d="M5 16H4a2 2 0 0 1-2-2v-4a2 2 0 0 1 2-2h1"/>
    <path d="M6 4h1a2 2 0 0 1 2 2 2 2 0 0 1 2-2h1"/>
    <path d="M9 6v12"/>
</svg>
